<svg id="browser" xmlns="http://www.w3.org/2000/svg" width="16.719" height="15.673" viewBox="0 0 16.719 15.673">
  <path id="Tracé_301" data-name="Tracé 301" d="M16.567,23.218l-6.5-6.5a2.42,2.42,0,0,0-3.418,0l-6.5,6.5a.522.522,0,0,0,.739.739l.414-.414v6.642a1.5,1.5,0,0,0,1.5,1.5H5.421a.327.327,0,0,0,.327-.327V26.527a1.633,1.633,0,0,1,1.633-1.633H9.34a1.633,1.633,0,0,1,1.633,1.633V31.36a.327.327,0,0,0,.327.327h2.612a1.5,1.5,0,0,0,1.5-1.5V23.543l.414.414a.522.522,0,0,0,.739-.739Z" transform="translate(-0.001 -16.014)"/>
</svg>
