<svg id="Capa_1" enable-background="new 0 0 512 512" height="512" viewBox="0 0 512 512" width="512" xmlns="http://www.w3.org/2000/svg"><g><path d="m512 256c0 20.12-2.32 39.71-6.72 58.49-3.242 13.876-48.658 7.884-54.056 20.789-7.541 18.027 23.957 54.441 12.686 70.1-46.47 64.571-122.28 106.621-207.91 106.621s-161.44-42.05-207.91-106.62c-19.34-26.87-33.6-57.63-41.37-90.89-4.4-18.78-6.72-38.37-6.72-58.49s2.32-39.71 6.72-58.49c5.65-24.19 14.73-47.05 26.71-68.06 44.04-77.32 127.22-129.45 222.57-129.45s178.53 52.13 222.57 129.45c11.98 21.01 21.06 43.87 26.71 68.06 4.4 18.78 6.72 38.37 6.72 58.49z" fill="#dc4355"/><g><path d="m505.28 173.33v141.16c-7.77 33.26-22.03 64.02-41.37 90.89-2.6.43-5.28.65-8 .65h-399.82c-2.72 0-5.4-.22-8-.65-23.46-3.82-41.37-24.17-41.37-48.72v-183.33c0-19.1 10.84-35.67 26.71-43.88 6.79-3.52 14.49-5.5 22.66-5.5h399.82c8.17 0 15.87 1.98 22.66 5.5 15.87 8.21 26.71 24.78 26.71 43.88z" fill="#e9eeff"/><path d="m87.7 406.034h-31.61c-27.267 0-49.372-22.106-49.372-49.372v-183.336c0-27.266 22.106-49.372 49.372-49.372h31.61c-27.267 0-49.372 22.106-49.372 49.372v183.335c-.001 27.267 22.105 49.373 49.372 49.373z" fill="#d4daf8"/><g><path d="m168.001 146.092h-60.638c-11.624 0-21.047 9.423-21.047 21.047v27.99c0 11.624 9.423 21.047 21.047 21.047h60.638c11.624 0 21.047-9.423 21.047-21.047v-27.99c0-11.624-9.423-21.047-21.047-21.047z" fill="#50405a"/><path d="m121.411 216.175h-14.052c-11.62 0-21.043-9.422-21.043-21.043v-27.992c0-11.62 9.423-21.043 21.043-21.043h14.052c-11.63 0-21.053 9.423-21.053 21.043v27.992c0 11.62 9.423 21.043 21.053 21.043z" fill="#362a40"/><path d="m286.319 146.092h-60.638c-11.624 0-21.047 9.423-21.047 21.047v27.99c0 11.624 9.423 21.047 21.047 21.047h60.638c11.624 0 21.047-9.423 21.047-21.047v-27.99c0-11.624-9.423-21.047-21.047-21.047z" fill="#50405a"/><path d="m404.637 146.092h-60.638c-11.624 0-21.047 9.423-21.047 21.047v27.99c0 11.624 9.423 21.047 21.047 21.047h60.638c11.624 0 21.047-9.423 21.047-21.047v-27.99c0-11.624-9.423-21.047-21.047-21.047z" fill="#50405a"/><g fill="#362a40"><path d="m239.729 216.175h-14.052c-11.62 0-21.043-9.422-21.043-21.043v-27.992c0-11.62 9.423-21.043 21.043-21.043h14.052c-11.63 0-21.053 9.423-21.053 21.043v27.992c0 11.62 9.423 21.043 21.053 21.043z"/><path d="m358.047 216.175h-14.052c-11.62 0-21.043-9.422-21.043-21.043v-27.992c0-11.62 9.423-21.043 21.043-21.043h14.052c-11.63 0-21.053 9.423-21.053 21.043v27.992c0 11.62 9.423 21.043 21.053 21.043z"/></g></g><path d="m404.637 314.235h-297.274c-11.624 0-21.047 9.423-21.047 21.047v27.99c0 11.624 9.423 21.047 21.047 21.047h297.274c11.624 0 21.047-9.423 21.047-21.047v-27.99c0-11.624-9.423-21.047-21.047-21.047z" fill="#50405a"/><g fill="#50405a"><path d="m108.842 227.572h-60.638c-11.624 0-21.047 9.423-21.047 21.047v27.99c0 11.624 9.423 21.047 21.047 21.047h60.638c11.624 0 21.047-9.423 21.047-21.047v-27.99c0-11.624-9.423-21.047-21.047-21.047z"/><path d="m227.16 227.572h-60.638c-11.624 0-21.047 9.423-21.047 21.047v27.99c0 11.624 9.423 21.047 21.047 21.047h60.638c11.624 0 21.047-9.423 21.047-21.047v-27.99c0-11.624-9.423-21.047-21.047-21.047z"/><path d="m345.478 227.572h-60.638c-11.624 0-21.047 9.423-21.047 21.047v27.99c0 11.624 9.423 21.047 21.047 21.047h60.638c11.624 0 21.047-9.423 21.047-21.047v-27.99c0-11.624-9.423-21.047-21.047-21.047z"/></g><path d="m52.872 314.235h-4.668c-11.624 0-21.047 9.423-21.047 21.047v27.99c0 11.624 9.423 21.047 21.047 21.047h4.668c11.624 0 21.047-9.423 21.047-21.047v-27.99c0-11.624-9.423-21.047-21.047-21.047z" fill="#50405a"/><path d="m52.872 146.092h-4.668c-11.624 0-21.047 9.423-21.047 21.047v27.99c0 11.624 9.423 21.047 21.047 21.047h4.668c11.624 0 21.047-9.423 21.047-21.047v-27.99c0-11.624-9.423-21.047-21.047-21.047z" fill="#50405a"/><path d="m57.101 215.745c-1.369.286-2.78.429-4.231.429h-4.66c-11.63 0-21.053-9.422-21.053-21.043v-27.992c0-11.62 9.423-21.043 21.053-21.043h4.66c1.451 0 2.862.143 4.231.429-9.586 1.962-16.801 10.445-16.801 20.613v27.992c-.001 10.171 7.215 18.653 16.801 20.615z" fill="#362a40"/><path d="m463.796 314.235h-4.668c-11.624 0-21.047 9.423-21.047 21.047v27.99c0 11.624 9.423 21.047 21.047 21.047h4.668c11.624 0 21.047-9.423 21.047-21.047v-27.99c0-11.624-9.423-21.047-21.047-21.047z" fill="#50405a"/><path d="m470.163 146.092h-13.282c-8.108 0-14.68 6.573-14.68 14.68v50.312c0 9.105-7.381 16.487-16.487 16.487h-22.556c-11.624 0-21.047 9.423-21.047 21.047v27.991c0 11.624 9.423 21.047 21.047 21.047h60.638c11.624 0 21.047-9.423 21.047-21.047v-16.714-11.276-87.846c0-8.108-6.572-14.681-14.68-14.681z" fill="#50405a"/><g fill="#362a40"><path d="m62.252 297.654h-14.052c-11.62 0-21.043-9.422-21.043-21.043v-27.992c0-11.62 9.423-21.043 21.043-21.043h14.052c-11.63 0-21.053 9.423-21.053 21.043v27.992c0 11.621 9.423 21.043 21.053 21.043z"/><path d="m180.57 297.654h-14.052c-11.62 0-21.043-9.422-21.043-21.043v-27.992c0-11.62 9.423-21.043 21.043-21.043h14.052c-11.63 0-21.053 9.423-21.053 21.043v27.992c0 11.621 9.423 21.043 21.053 21.043z"/><path d="m298.888 297.654h-14.052c-11.62 0-21.043-9.422-21.043-21.043v-27.992c0-11.62 9.423-21.043 21.043-21.043h14.052c-11.63 0-21.053 9.423-21.053 21.043v27.992c0 11.621 9.423 21.043 21.053 21.043z"/><path d="m417.206 297.654h-14.052c-11.62 0-21.043-9.422-21.043-21.043v-27.992c0-11.62 9.423-21.043 21.043-21.043h14.052c-11.63 0-21.053 9.423-21.053 21.043v27.992c0 11.62 9.423 21.043 21.053 21.043z"/><path d="m121.411 384.317h-14.052c-11.62 0-21.043-9.422-21.043-21.043v-27.992c0-11.62 9.423-21.043 21.043-21.043h14.052c-11.63 0-21.053 9.423-21.053 21.043v27.992c0 11.621 9.423 21.043 21.053 21.043z"/><path d="m57.101 383.885c-1.369.286-2.78.429-4.231.429h-4.66c-11.63 0-21.053-9.422-21.053-21.043v-27.992c0-11.62 9.423-21.043 21.053-21.043h4.66c1.451 0 2.862.143 4.231.429-9.586 1.962-16.801 10.445-16.801 20.613v27.992c-.001 10.171 7.215 18.653 16.801 20.615z"/><path d="m468.025 383.885c-1.369.286-2.78.429-4.231.429h-4.66c-11.63 0-21.053-9.422-21.053-21.043v-27.992c0-11.62 9.423-21.043 21.053-21.043h4.66c1.451 0 2.862.143 4.231.429-9.586 1.962-16.801 10.445-16.801 20.613v27.992c0 10.171 7.215 18.653 16.801 20.615z"/><path d="m58.946 175.611c-2.252 0-4.078-1.826-4.078-4.078v-7.477c0-2.252 1.826-4.078 4.078-4.078 2.252 0 4.078 1.826 4.078 4.078v7.477c.001 2.252-1.825 4.078-4.078 4.078z"/><path d="m178.021 175.611c-2.252 0-4.078-1.826-4.078-4.078v-7.477c0-2.252 1.826-4.078 4.078-4.078 2.252 0 4.078 1.826 4.078 4.078v7.477c0 2.252-1.826 4.078-4.078 4.078z"/><path d="m292.614 175.611c-2.252 0-4.078-1.826-4.078-4.078v-7.477c0-2.252 1.826-4.078 4.078-4.078 2.252 0 4.078 1.826 4.078 4.078v7.477c0 2.252-1.826 4.078-4.078 4.078z"/><path d="m347.369 256.836c-2.252 0-4.078-1.826-4.078-4.078v-7.477c0-2.252 1.826-4.078 4.078-4.078 2.252 0 4.078 1.826 4.078 4.078v7.477c0 2.253-1.825 4.078-4.078 4.078z"/><path d="m229.846 256.836c-2.252 0-4.078-1.826-4.078-4.078v-7.477c0-2.252 1.826-4.078 4.078-4.078 2.252 0 4.078 1.826 4.078 4.078v7.477c0 2.253-1.826 4.078-4.078 4.078z"/><path d="m113.455 256.836c-2.252 0-4.078-1.826-4.078-4.078v-7.477c0-2.252 1.826-4.078 4.078-4.078 2.252 0 4.078 1.826 4.078 4.078v7.477c.001 2.253-1.825 4.078-4.078 4.078z"/><path d="m58.848 344.115c-2.252 0-4.078-1.826-4.078-4.078v-7.477c0-2.252 1.826-4.078 4.078-4.078 2.252 0 4.078 1.826 4.078 4.078v7.477c0 2.252-1.826 4.078-4.078 4.078z"/><path d="m403.202 344.115c-2.252 0-4.078-1.826-4.078-4.078v-7.477c0-2.252 1.826-4.078 4.078-4.078 2.252 0 4.078 1.826 4.078 4.078v7.477c0 2.252-1.825 4.078-4.078 4.078z"/><path d="m468.409 344.115c-2.252 0-4.078-1.826-4.078-4.078v-7.477c0-2.252 1.826-4.078 4.078-4.078 2.252 0 4.078 1.826 4.078 4.078v7.477c0 2.252-1.826 4.078-4.078 4.078z"/><path d="m410.184 175.611c-2.252 0-4.078-1.826-4.078-4.078v-7.477c0-2.252 1.826-4.078 4.078-4.078 2.252 0 4.078 1.826 4.078 4.078v7.477c0 2.252-1.826 4.078-4.078 4.078z"/><path d="m462.868 220.779c-3.669 0-6.643 2.974-6.643 6.643v24.087c0 .671-.545 1.216-1.216 1.216h-21.317l5.962-5.962c2.595-2.594 2.595-6.8.001-9.395-2.594-2.594-6.801-2.594-9.395 0l-17.303 17.302c-1.247 1.246-1.946 2.935-1.946 4.697s.7 3.452 1.946 4.697l17.303 17.302c1.296 1.297 2.997 1.946 4.697 1.946s3.4-.649 4.698-1.946c2.594-2.594 2.594-6.801-.001-9.395l-5.962-5.962h21.317c7.996 0 14.502-6.506 14.502-14.502v-24.087c0-3.667-2.974-6.641-6.643-6.641z"/></g></g></g></svg>