<svg height="511pt" viewBox="1 -5 511.99974 511" width="511pt" xmlns="http://www.w3.org/2000/svg"><path d="m500.757812 250.878906c0 138.28125-112.097656 250.378906-250.378906 250.378906s-250.378906-112.097656-250.378906-250.378906 112.097656-250.378906 250.378906-250.378906 250.378906 112.097656 250.378906 250.378906zm0 0" fill="#c0fbff"/><path d="m460.390625 322.417969v40.875c0 5.644531-4.574219 10.222656-10.21875 10.222656s-10.21875-4.578125-10.21875-10.222656v-40.875c0-11.273438-9.171875-20.441407-20.441406-20.441407h-158.914063v61.316407c0 5.644531-4.574218 10.222656-10.21875 10.222656-5.644531 0-10.21875-4.578125-10.21875-10.222656v-61.316407h-158.914062c-11.269532 0-20.441406 9.167969-20.441406 20.441407v40.875c0 5.644531-4.574219 10.222656-10.21875 10.222656-5.644532 0-10.21875-4.578125-10.21875-10.222656v-40.875c0-22.542969 18.339843-40.878907 40.878906-40.878907h158.914062v-51.097656c0-5.644531 4.574219-10.222656 10.21875-10.222656 5.644532 0 10.21875 4.578125 10.21875 10.222656v51.097656h158.914063c22.542969 0 40.878906 18.335938 40.878906 40.878907zm0 0" fill="#84deea"/><path d="m362.792969 189.5625h-224.828125c-8.464844 0-15.332032-6.863281-15.332032-15.332031v-143.070313c0-8.46875 6.867188-15.332031 15.332032-15.332031h224.828125c8.46875 0 15.332031 6.863281 15.332031 15.332031v143.070313c0 8.46875-6.863281 15.332031-15.332031 15.332031zm0 0" fill="#0069a3"/><path d="m282.058594 240.660156h-63.359375c-8.464844 0-15.328125-6.863281-15.328125-15.328125v-143.074219c0-8.46875 6.863281-15.332031 15.328125-15.332031h63.359375c8.46875 0 15.332031 6.863281 15.332031 15.332031v143.074219c0 8.464844-6.863281 15.328125-15.332031 15.328125zm0 0" fill="#025f80"/><path d="m317.828125 225.332031c0 8.464844-6.863281 15.328125-15.328125 15.328125h-104.242188c-8.464843 0-15.328124-6.863281-15.328124-15.328125 0-8.46875 6.863281-15.332031 15.328124-15.332031h104.242188c8.464844 0 15.328125 6.863281 15.328125 15.332031zm44.964844-209.503906h-195.191407c-8.464843 0-15.332031 6.863281-15.332031 15.332031v143.070313c0 8.46875 6.867188 15.332031 15.332031 15.332031h195.191407c8.46875 0 15.332031-6.863281 15.332031-15.332031v-143.070313c0-8.46875-6.863281-15.332031-15.332031-15.332031zm0 0" fill="#08c"/><path d="m345.675781 169.121094h-190.59375c-5.644531 0-10.21875-4.574219-10.21875-10.21875v-112.414063c0-5.644531 4.574219-10.21875 10.21875-10.21875h190.59375c5.644531 0 10.21875 4.574219 10.21875 10.21875v112.414063c0 5.644531-4.574219 10.21875-10.21875 10.21875zm0 0" fill="#c0f9cf"/><path d="m311.695312 424.613281c0 33.863281-27.453124 61.316407-61.316406 61.316407-33.863281 0-61.316406-27.453126-61.316406-61.316407 0-33.867187 27.453125-61.320312 61.316406-61.320312 33.863282 0 61.316406 27.453125 61.316406 61.320312zm131.140626-61.320312c-33.863282 0-61.316407 27.453125-61.316407 61.320312 0 33.863281 27.453125 61.316407 61.316407 61.316407 33.863281 0 61.316406-27.453126 61.316406-61.316407 0-33.867187-27.453125-61.320312-61.316406-61.320312zm0 0" fill="#54d680"/><path d="m311.675781 424.613281c0 11.15625-2.996093 21.613281-8.207031 30.625-9.015625 5.210938-19.46875 8.207031-30.628906 8.207031-33.863282 0-61.316406-27.453124-61.316406-61.316406 0-11.160156 2.996093-21.613281 8.207031-30.628906 9.015625-5.210938 19.46875-8.207031 30.628906-8.207031 33.863281 0 61.316406 27.453125 61.316406 61.320312zm-261.621093-61.320312c-7.554688 0-14.785157 1.378906-21.464844 3.882812 18.09375 34.433594 43.964844 64.136719 75.289062 86.769531 4.761719-8.714843 7.492188-18.703124 7.492188-29.332031 0-33.867187-27.453125-61.320312-61.316406-61.320312zm392.761718 0c-11.160156 0-21.617187 2.996093-30.628906 8.207031-5.210938 9.015625-8.207031 19.46875-8.207031 30.628906 0 33.863282 27.453125 61.316406 61.316406 61.316406 11.160156 0 21.613281-2.996093 30.628906-8.207031 5.210938-9.011719 8.207031-19.46875 8.207031-30.625 0-33.867187-27.453124-61.320312-61.316406-61.320312zm0 0" fill="#46e093"/><path d="m226.546875 139.484375-28.90625-28.902344c-5.988281-5.988281-5.988281-15.691406 0-21.679687 5.984375-5.988282 15.691406-5.988282 21.679687 0l18.066407 18.066406 45.769531-45.773438c5.988281-5.984374 15.691406-5.984374 21.679688 0 5.984374 5.988282 5.984374 15.695313 0 21.679688l-56.613282 56.609375c-2.992187 2.996094-6.914062 4.492187-10.835937 4.492187-3.925781 0-7.847657-1.496093-10.839844-4.492187zm66.828125 243.226563-45.769531 45.769531-18.066407-18.0625c-5.988281-5.988281-15.695312-5.988281-21.679687 0-5.988281 5.984375-5.988281 15.691406 0 21.675781l28.90625 28.90625c2.992187 2.996094 6.914063 4.492188 10.835937 4.492188 3.921876 0 7.847657-1.5 10.839844-4.492188l56.609375-56.609375c5.988281-5.984375 5.988281-15.691406 0-21.679687-5.984375-5.984376-15.6875-5.984376-21.675781 0zm214.136719 0c-5.988281-5.984376-15.691407-5.984376-21.679688 0l-45.773437 45.769531-18.0625-18.0625c-5.988282-5.988281-15.695313-5.988281-21.679688 0-5.988281 5.984375-5.988281 15.691406 0 21.675781l28.90625 28.90625c2.992188 2.992188 6.914063 4.488281 10.835938 4.488281 3.925781 0 7.847656-1.496093 10.839844-4.488281l56.609374-56.609375c5.988282-5.988281 5.988282-15.691406.003907-21.679687zm0 0" fill="#008c6c"/><path d="m238.382812 127.648438-28.90625-28.90625c-3.796874-3.800782-5.175781-9.097657-4.152343-13.992188 4.894531-1.027344 10.195312.351562 13.992187 4.152344l18.066406 18.066406 45.773438-45.769531c5.984375-5.988281 15.691406-5.988281 21.679688 0 5.984374 5.984375 5.984374 15.691406 0 21.675781l-44.773438 44.773438c-2.992188 2.992187-6.917969 4.488281-10.839844 4.488281s-7.847656-1.496094-10.839844-4.488281zm269.128907 255.0625c-5.988281-5.984376-15.691407-5.984376-21.679688 0l-45.773437 45.769531-18.0625-18.0625c-3.800782-3.800781-9.101563-5.179688-13.996094-4.15625-1.023438 4.894531.351562 10.195312 4.15625 13.996093l28.902344 28.902344c2.996094 2.996094 6.917968 4.492188 10.839844 4.492188 3.921874 0 7.847656-1.496094 10.839843-4.492188l44.773438-44.773437c5.984375-5.984375 5.984375-15.691407 0-21.675781zm-414.441407 0-32.019531 32.019531c6.699219 7.730469 13.867188 15.046875 21.453125 21.90625l32.246094-32.246094c5.984375-5.988281 5.984375-15.691406 0-21.679687-5.984375-5.984376-15.691406-5.984376-21.679688 0zm200.304688 0-45.769531 45.769531-18.066407-18.0625c-3.800781-3.800781-9.101562-5.179688-13.996093-4.15625-1.023438 4.894531.351562 10.195312 4.15625 13.996093l28.902343 28.902344c2.996094 2.996094 6.917969 4.492188 10.839844 4.492188s7.847656-1.496094 10.839844-4.492188l44.773438-44.773437c5.984374-5.984375 5.984374-15.691407-.003907-21.675781-5.984375-5.984376-15.6875-5.984376-21.675781 0zm0 0" fill="#00b96f"/></svg>