<svg xmlns="http://www.w3.org/2000/svg" width="48.147" height="54" viewBox="0 0 48.147 54">
  <g id="science" transform="translate(-27.747)">
    <path id="Tracé_7379" data-name="Tracé 7379" d="M57.358,104.938c-1.8-1.036-3.66-1.986-5.537-2.846-9.927-4.546-20.267-6.247-23.292-1.01-4.306,7.463,10.235,18.7,17.755,23.038,1.521.878,3.433,1.856,5.537,2.8,8.357,3.756,19.879,6.966,23.292,1.054C79.418,120.514,64.878,109.279,57.358,104.938Zm15.014,21.456c-1.652,2.869-10.393,2.041-20.551-2.917-1.3-.634-2.62-1.328-3.955-2.1-5.758-3.324-19.5-13.7-16.6-18.716,2.182-3.78,12.874-.623,20.551,2.976,1.448.679,2.8,1.372,3.955,2.039C61.534,111,75.271,121.377,72.372,126.395Z" transform="translate(0 -87.529)" fill="#ff712f"/>
    <path id="Tracé_7380" data-name="Tracé 7380" d="M279.292,163.961c4.306-7.463-10.235-18.7-17.755-23.038-1.8-1.036-3.66-1.986-5.537-2.846v3.548c1.448.679,2.8,1.372,3.955,2.039,5.758,3.324,19.5,13.7,16.6,18.716-1.652,2.869-10.393,2.041-20.551-2.917v3.444C264.357,166.662,275.879,169.872,279.292,163.961Z" transform="translate(-204.179 -123.513)" fill="#ff4c04"/>
    <path id="Tracé_7381" data-name="Tracé 7381" d="M75.115,101.081c-3.021-5.238-13.362-3.536-23.292,1.011-1.877.859-3.742,1.809-5.537,2.845-7.558,4.363-22.054,15.587-17.755,23.038,3.4,5.891,14.915,2.706,23.292-1.055,2.1-.943,4.01-1.919,5.537-2.8C64.919,119.756,79.414,108.532,75.115,101.081Zm-19.337,20.3c-1.335.771-2.655,1.463-3.955,2.1-10.157,4.955-18.895,5.783-20.551,2.917-2.8-4.851,10.41-15.145,16.6-18.716,1.134-.655,2.49-1.352,3.955-2.041,7.536-3.547,18.3-6.876,20.551-2.973C75.178,107.514,61.964,117.808,55.778,121.379Z" transform="translate(-0.003 -87.528)" fill="#27d8f6"/>
    <path id="Tracé_7382" data-name="Tracé 7382" d="M279.292,101.081c-3.021-5.238-13.361-3.536-23.292,1.011v3.545c7.536-3.547,18.3-6.876,20.551-2.973,2.8,4.851-10.411,15.145-16.6,18.716-1.335.771-2.655,1.463-3.955,2.1v3.444c2.1-.943,4.01-1.919,5.537-2.8C269.1,119.756,283.591,108.532,279.292,101.081Z" transform="translate(-204.179 -87.528)" fill="#3aaaff"/>
    <path id="Tracé_7383" data-name="Tracé 7383" d="M162.074,0C154.881,0,151,13.962,151,27s3.881,27,11.074,27,11.074-13.962,11.074-27S169.268,0,162.074,0Zm0,50.836c-3.734,0-7.91-10.254-7.91-23.836s4.176-23.836,7.91-23.836,7.91,10.254,7.91,23.836S165.808,50.836,162.074,50.836Z" transform="translate(-110.253)" fill="#ffda2d"/>
    <path id="Tracé_7384" data-name="Tracé 7384" d="M267.074,27c0-13.038-3.881-27-11.074-27V3.164c3.734,0,7.91,10.254,7.91,23.836S259.734,50.836,256,50.836V54C263.193,54,267.074,40.038,267.074,27Z" transform="translate(-204.179)" fill="#fdbf00"/>
    <circle id="Ellipse_215" data-name="Ellipse 215" cx="4.746" cy="4.746" r="4.746" transform="translate(47.075 22.254)" fill="#ff712f"/>
    <path id="Tracé_7385" data-name="Tracé 7385" d="M260.746,215.746A4.751,4.751,0,0,0,256,211v9.492A4.751,4.751,0,0,0,260.746,215.746Z" transform="translate(-204.179 -188.746)" fill="#ff4c04"/>
  </g>
</svg>
